<?xml version="1.0" encoding="utf-8"?>
<!-- Generator: Adobe Illustrator 18.1.1, SVG Export Plug-In . SVG Version: 6.00 Build 0)  -->
<svg version="1.1" id="Слой_1" xmlns="http://www.w3.org/2000/svg" xmlns:xlink="http://www.w3.org/1999/xlink" x="0px" y="0px"
	 viewBox="0 0 182.858 207.944" enable-background="new 0 0 182.858 207.944" xml:space="preserve">
<linearGradient id="SVGID_1_" gradientUnits="userSpaceOnUse" x1="56.7177" y1="4.8771" x2="61.351" y2="93.5596">
	<stop  offset="0" style="stop-color:#F9C850"/>
	<stop  offset="1" style="stop-color:#BB4F25"/>
</linearGradient>
<path fill="url(#SVGID_1_)" d="M46.852,40.862c-0.001-0.266,0.003-0.528,0.004-0.792c0.003-0.414,0.007-0.827,0.016-1.238
	c0.007-0.275,0.016-0.55,0.024-0.824c0.013-0.396,0.027-0.791,0.046-1.184c0.014-0.276,0.027-0.55,0.043-0.825
	c0.023-0.39,0.049-0.778,0.077-1.165c0.02-0.267,0.039-0.535,0.062-0.801c0.033-0.396,0.07-0.79,0.109-1.181
	c0.025-0.249,0.048-0.499,0.075-0.746c0.047-0.431,0.101-0.857,0.155-1.282c0.025-0.201,0.048-0.405,0.075-0.605
	c0.085-0.62,0.176-1.234,0.274-1.84c0.015-0.088,0.032-0.174,0.047-0.262c0.087-0.518,0.178-1.034,0.275-1.542
	c0.041-0.214,0.086-0.424,0.129-0.636c0.076-0.377,0.153-0.754,0.235-1.126c0.052-0.237,0.108-0.471,0.162-0.706
	c0.08-0.342,0.161-0.683,0.245-1.019c0.061-0.239,0.122-0.475,0.185-0.71c0.086-0.326,0.175-0.649,0.265-0.969
	c0.067-0.235,0.135-0.469,0.203-0.701c0.095-0.317,0.191-0.629,0.29-0.94c0.071-0.223,0.142-0.446,0.214-0.665
	c0.106-0.32,0.217-0.635,0.328-0.949c0.071-0.202,0.142-0.405,0.215-0.604c0.129-0.35,0.263-0.692,0.397-1.033
	c0.061-0.153,0.118-0.309,0.18-0.46c0.198-0.484,0.401-0.959,0.61-1.423c0.051-0.113,0.106-0.221,0.156-0.333
	c0.162-0.352,0.326-0.701,0.495-1.04c0.084-0.169,0.171-0.333,0.257-0.5c0.141-0.273,0.282-0.547,0.428-0.813
	c0.097-0.177,0.196-0.349,0.295-0.521c0.141-0.247,0.282-0.492,0.427-0.731c0.103-0.172,0.209-0.34,0.314-0.508
	c0.146-0.23,0.292-0.457,0.44-0.679c0.108-0.163,0.218-0.323,0.327-0.481c0.154-0.221,0.311-0.435,0.468-0.648
	c0.108-0.147,0.218-0.295,0.328-0.438c0.168-0.217,0.34-0.426,0.512-0.634c0.104-0.126,0.207-0.255,0.313-0.378
	c0.206-0.239,0.417-0.468,0.629-0.693c0.074-0.079,0.146-0.164,0.222-0.242c0.287-0.297,0.579-0.582,0.875-0.852
	c0.08-0.074,0.163-0.14,0.244-0.212c0.219-0.193,0.438-0.384,0.661-0.563c0.116-0.093,0.234-0.178,0.351-0.267
	c0.193-0.147,0.387-0.292,0.582-0.428c0.129-0.089,0.259-0.172,0.389-0.256c0.19-0.123,0.38-0.243,0.571-0.355
	c0.135-0.079,0.271-0.155,0.407-0.229c0.191-0.105,0.385-0.203,0.579-0.297c0.139-0.067,0.276-0.133,0.416-0.194
	c0.169-0.075,0.341-0.142,0.513-0.209c0.208-0.081,0.418-0.16,0.629-0.229c0.166-0.055,0.332-0.105,0.5-0.152
	c0.21-0.06,0.422-0.114,0.636-0.162c0.205-0.046,0.411-0.091,0.619-0.126c0.098-0.017,0.195-0.034,0.293-0.048
	c0.335-0.048,0.672-0.086,1.012-0.105c0.37-0.021,0.739-0.015,1.107,0c0.067,0.003,0.135,0,0.202,0.003
	c0.383,0.022,0.764,0.067,1.144,0.126c0.191,0.03,0.382,0.076,0.573,0.116C69.929,1.6,70.153,1.642,70.374,1.7
	c0.191,0.051,0.381,0.117,0.571,0.177c0.257,0.082,0.515,0.156,0.77,0.254c-1.12-0.431-2.24-0.862-3.36-1.293
	c-0.079-0.03-0.158-0.06-0.237-0.089c-0.176-0.064-0.354-0.108-0.53-0.164c-0.191-0.061-0.382-0.126-0.574-0.178
	c-0.22-0.058-0.44-0.099-0.661-0.145c-0.192-0.04-0.385-0.087-0.579-0.117c-0.032-0.005-0.064-0.015-0.096-0.02
	C65.329,0.075,64.98,0.04,64.63,0.019c-0.067-0.004-0.135,0-0.202-0.003c-0.259-0.011-0.517-0.021-0.776-0.014
	c-0.11,0.002-0.221,0.007-0.332,0.013c-0.34,0.019-0.676,0.057-1.01,0.105c-0.1,0.014-0.198,0.032-0.297,0.049
	c-0.116,0.02-0.233,0.034-0.349,0.057c-0.089,0.018-0.176,0.047-0.265,0.067c-0.216,0.049-0.43,0.103-0.644,0.164
	c-0.165,0.047-0.33,0.096-0.493,0.15c-0.211,0.07-0.421,0.147-0.629,0.229c-0.1,0.039-0.202,0.068-0.302,0.11
	c-0.073,0.031-0.144,0.069-0.217,0.101c-0.138,0.061-0.274,0.126-0.409,0.192c-0.196,0.095-0.391,0.194-0.584,0.3
	c-0.136,0.074-0.271,0.148-0.404,0.228c-0.193,0.113-0.384,0.233-0.573,0.356c-0.13,0.084-0.259,0.167-0.387,0.255
	c-0.196,0.136-0.391,0.282-0.584,0.429c-0.116,0.088-0.234,0.173-0.35,0.266c-0.222,0.178-0.439,0.368-0.657,0.559
	C55.085,3.707,55,3.775,54.918,3.85c-0.296,0.271-0.587,0.555-0.874,0.852c-0.076,0.079-0.149,0.165-0.226,0.246
	c-0.21,0.224-0.419,0.451-0.624,0.689c-0.107,0.124-0.212,0.256-0.317,0.384c-0.171,0.206-0.341,0.413-0.507,0.628
	c-0.112,0.144-0.222,0.294-0.331,0.442c-0.156,0.211-0.312,0.424-0.464,0.643c-0.111,0.159-0.221,0.322-0.33,0.485
	c-0.148,0.221-0.294,0.446-0.438,0.675C50.7,9.063,50.595,9.232,50.49,9.405c-0.144,0.238-0.285,0.482-0.425,0.728
	c-0.1,0.174-0.199,0.347-0.296,0.524c-0.145,0.265-0.285,0.536-0.426,0.809c-0.087,0.168-0.175,0.333-0.26,0.504
	c-0.168,0.338-0.331,0.685-0.492,1.035c-0.052,0.114-0.106,0.223-0.158,0.337c-0.209,0.464-0.412,0.939-0.609,1.423
	c-0.063,0.152-0.12,0.31-0.182,0.463c-0.135,0.341-0.268,0.683-0.397,1.032c-0.072,0.198-0.142,0.4-0.213,0.6
	c-0.111,0.315-0.223,0.631-0.329,0.953c-0.073,0.219-0.143,0.44-0.213,0.663c-0.099,0.311-0.196,0.625-0.291,0.942
	c-0.068,0.231-0.136,0.465-0.203,0.7c-0.091,0.32-0.179,0.644-0.265,0.969c-0.063,0.236-0.124,0.471-0.185,0.71
	c-0.085,0.338-0.166,0.681-0.246,1.024c-0.054,0.232-0.109,0.464-0.161,0.699c-0.083,0.375-0.16,0.756-0.237,1.137
	c-0.042,0.209-0.087,0.415-0.127,0.625c-0.097,0.507-0.188,1.019-0.274,1.536c-0.015,0.091-0.033,0.18-0.048,0.271
	c-0.099,0.606-0.19,1.221-0.274,1.84c-0.027,0.198-0.05,0.4-0.075,0.599c-0.055,0.427-0.108,0.855-0.155,1.288
	c-0.027,0.246-0.05,0.494-0.074,0.742c-0.039,0.393-0.077,0.787-0.11,1.185c-0.022,0.266-0.042,0.532-0.062,0.799
	c-0.028,0.387-0.054,0.775-0.077,1.167c-0.016,0.273-0.029,0.548-0.043,0.823c-0.019,0.393-0.033,0.788-0.046,1.185
	c-0.009,0.274-0.018,0.548-0.023,0.824c-0.01,0.41-0.014,0.824-0.017,1.238c-0.001,0.264-0.005,0.526-0.004,0.792
	c0.001,0.458,0.01,0.92,0.019,1.382c0.005,0.223,0.006,0.444,0.013,0.668c0.018,0.688,0.045,1.379,0.082,2.074
	C44.67,63.837,52.809,80.31,62.771,84.14l3.361,1.292c-9.962-3.83-18.103-20.303-19.167-40.446
	c-0.037-0.695-0.064-1.387-0.082-2.074c-0.007-0.224-0.008-0.445-0.013-0.668C46.862,41.782,46.854,41.32,46.852,40.862z"/>
<g>
	<linearGradient id="SVGID_2_" gradientUnits="userSpaceOnUse" x1="72.3283" y1="73.2688" x2="63.3284" y2="-4.7313">
		<stop  offset="0" style="stop-color:#F9C850"/>
		<stop  offset="1" style="stop-color:#BB4F25"/>
	</linearGradient>
	<path fill="url(#SVGID_2_)" d="M66.68,1.307c12.123-0.665,22.966,17.815,24.206,41.271c1.24,23.456-7.592,43.013-19.715,43.678
		c-12.133,0.665-22.966-17.815-24.206-41.271C45.725,21.53,54.548,1.972,66.68,1.307z"/>
</g>
<linearGradient id="SVGID_3_" gradientUnits="userSpaceOnUse" x1="20.787" y1="45.3082" x2="15.7579" y2="117.9745">
	<stop  offset="0" style="stop-color:#F9C850"/>
	<stop  offset="1" style="stop-color:#BB4F25"/>
</linearGradient>
<path fill="url(#SVGID_3_)" d="M11.21,102.849C1.345,85.334,0.688,66.963,9.753,61.835c0.683-0.386,1.402-0.683,2.151-0.9
	c0.116-0.034,0.236-0.059,0.354-0.089c0.26-0.065,0.521-0.127,0.788-0.174c0.091-0.017,0.183-0.031,0.275-0.045
	c0.359-0.054,0.723-0.098,1.094-0.118c0.519-0.028,1.051-0.022,1.59,0.014c0.058,0.004,0.117,0.014,0.176,0.019
	c0.415,0.033,0.837,0.09,1.263,0.16c0.301,0.05,0.607,0.117,0.911,0.185c0.276,0.061,0.553,0.12,0.832,0.195
	c0.317,0.087,0.64,0.192,0.961,0.298c0.353,0.114,0.703,0.219,1.06,0.355c-1.12-0.431-2.241-0.861-3.361-1.292
	c-0.152-0.059-0.306-0.115-0.458-0.17c-0.201-0.072-0.397-0.119-0.598-0.185c-0.323-0.105-0.648-0.212-0.967-0.299
	c-0.277-0.075-0.55-0.133-0.824-0.194c-0.308-0.068-0.615-0.136-0.919-0.186c-0.092-0.016-0.186-0.043-0.277-0.057
	c-0.331-0.049-0.656-0.077-0.981-0.104c-0.059-0.005-0.118-0.015-0.177-0.019c-0.415-0.027-0.825-0.038-1.228-0.028
	c-0.121,0.003-0.242,0.008-0.361,0.015c-0.371,0.021-0.735,0.064-1.095,0.118c-0.092,0.014-0.183,0.028-0.273,0.045
	c-0.086,0.015-0.174,0.024-0.26,0.042c-0.179,0.036-0.352,0.088-0.527,0.132c-0.118,0.03-0.238,0.055-0.356,0.089
	c-0.361,0.105-0.717,0.225-1.063,0.369c-0.372,0.154-0.734,0.331-1.088,0.531c-9.063,5.128-8.407,23.499,1.458,41.014
	c6.38,11.326,15.051,19.528,22.832,22.52l3.36,1.292C26.261,122.377,17.591,114.176,11.21,102.849z"/>
<g>
	<linearGradient id="SVGID_4_" gradientUnits="userSpaceOnUse" x1="46.9315" y1="120.0339" x2="-44.568" y2="-5.4654">
		<stop  offset="0" style="stop-color:#F9C850"/>
		<stop  offset="1" style="stop-color:#BB4F25"/>
	</linearGradient>
	<path fill="url(#SVGID_4_)" d="M14.414,60.509c9.066-0.497,21.292,8.956,29.618,23.737c9.865,17.523,10.521,35.886,1.449,41.022
		c-1.413,0.801-2.982,1.232-4.656,1.324c-9.06,0.497-21.288-8.962-29.615-23.744C1.345,85.334,0.688,66.963,9.753,61.835
		C11.169,61.034,12.737,60.602,14.414,60.509z"/>
</g>
<linearGradient id="SVGID_5_" gradientUnits="userSpaceOnUse" x1="158.2047" y1="22.4227" x2="150.5273" y2="146.0594">
	<stop  offset="0" style="stop-color:#F9C850"/>
	<stop  offset="1" style="stop-color:#BB4F25"/>
</linearGradient>
<path fill="url(#SVGID_5_)" d="M143.995,83.98c0.064-0.139,0.13-0.278,0.195-0.416c0.318-0.666,0.644-1.323,0.977-1.969
	c0.065-0.126,0.131-0.249,0.196-0.373c0.322-0.615,0.65-1.222,0.986-1.816c0.034-0.062,0.068-0.124,0.103-0.186
	c0.357-0.628,0.723-1.241,1.093-1.846c0.08-0.132,0.16-0.263,0.241-0.393c0.367-0.591,0.74-1.171,1.118-1.737
	c0.065-0.097,0.131-0.19,0.195-0.286c0.354-0.521,0.711-1.033,1.073-1.533c0.062-0.085,0.122-0.173,0.185-0.257
	c0.391-0.534,0.787-1.054,1.188-1.562c0.092-0.117,0.184-0.232,0.275-0.348c0.404-0.505,0.812-1,1.224-1.478
	c0.052-0.061,0.105-0.118,0.157-0.178c0.386-0.443,0.774-0.872,1.165-1.29c0.079-0.085,0.158-0.171,0.237-0.255
	c0.416-0.438,0.835-0.86,1.256-1.27c0.093-0.09,0.186-0.178,0.277-0.266c0.433-0.413,0.867-0.815,1.304-1.196
	c0.023-0.02,0.045-0.037,0.067-0.057c0.423-0.368,0.849-0.717,1.274-1.054c0.089-0.07,0.177-0.142,0.266-0.21
	c0.43-0.334,0.86-0.651,1.292-0.952c0.084-0.059,0.168-0.115,0.252-0.172c0.428-0.292,0.855-0.571,1.281-0.83
	c0.025-0.015,0.051-0.032,0.076-0.048c0.444-0.267,0.888-0.51,1.33-0.74c0.087-0.045,0.174-0.091,0.261-0.135
	c0.434-0.22,0.869-0.423,1.301-0.604c0.061-0.026,0.121-0.049,0.183-0.073c0.985-0.405,1.961-0.711,2.919-0.915
	c0.073-0.016,0.148-0.034,0.221-0.049c0.205-0.039,0.407-0.07,0.61-0.101c0.1-0.016,0.202-0.035,0.302-0.048
	c0.305-0.038,0.607-0.067,0.906-0.084c0.302-0.017,0.599-0.012,0.895-0.006c0.105,0.003,0.21,0,0.313,0.005
	c0.354,0.018,0.704,0.049,1.049,0.1c0.033,0.005,0.064,0.014,0.098,0.02c0.317,0.05,0.631,0.112,0.941,0.191
	c0.114,0.029,0.227,0.069,0.341,0.103c0.261,0.076,0.521,0.152,0.776,0.25l-3.361-1.292c-0.073-0.028-0.145-0.056-0.22-0.082
	c-0.183-0.065-0.369-0.112-0.555-0.167c-0.114-0.034-0.228-0.074-0.344-0.104c-0.305-0.078-0.615-0.14-0.928-0.19
	c-0.037-0.006-0.073-0.016-0.11-0.021c-0.005-0.001-0.01-0.002-0.015-0.003c-0.34-0.05-0.686-0.079-1.033-0.097
	c-0.104-0.005-0.209-0.002-0.314-0.005c-0.184-0.004-0.369-0.013-0.557-0.008c-0.112,0.003-0.225,0.008-0.338,0.014
	c-0.3,0.017-0.602,0.046-0.906,0.084c-0.1,0.013-0.2,0.032-0.3,0.047c-0.204,0.031-0.407,0.061-0.612,0.102
	c-0.03,0.006-0.061,0.009-0.091,0.015c-0.043,0.009-0.087,0.024-0.13,0.033c-0.474,0.101-0.951,0.221-1.433,0.371
	c-0.004,0.001-0.007,0.002-0.011,0.003c-0.487,0.152-0.979,0.336-1.471,0.538c-0.041,0.017-0.081,0.028-0.122,0.045
	c-0.023,0.01-0.047,0.022-0.069,0.032c-0.43,0.182-0.861,0.384-1.294,0.602c-0.09,0.045-0.179,0.092-0.269,0.139
	c-0.44,0.229-0.883,0.473-1.325,0.738c-0.025,0.016-0.051,0.032-0.076,0.048c-0.428,0.259-0.856,0.539-1.284,0.831
	c-0.083,0.057-0.165,0.111-0.248,0.169c-0.433,0.303-0.865,0.621-1.297,0.956c-0.086,0.066-0.171,0.136-0.257,0.203
	c-0.433,0.342-0.864,0.696-1.294,1.07c-0.017,0.014-0.033,0.027-0.05,0.041c-0.439,0.385-0.877,0.79-1.313,1.206
	c-0.089,0.085-0.177,0.169-0.266,0.255c-0.424,0.411-0.846,0.837-1.266,1.278c-0.075,0.079-0.149,0.161-0.225,0.242
	c-0.398,0.425-0.793,0.861-1.186,1.312c-0.047,0.054-0.094,0.105-0.141,0.16c-0.416,0.482-0.826,0.981-1.234,1.49
	c-0.088,0.109-0.175,0.22-0.263,0.331c-0.403,0.512-0.803,1.035-1.197,1.574c-0.059,0.079-0.115,0.161-0.174,0.241
	c-0.366,0.507-0.729,1.025-1.087,1.555c-0.062,0.091-0.124,0.18-0.186,0.271c-0.381,0.569-0.755,1.152-1.124,1.745
	c-0.079,0.128-0.157,0.256-0.236,0.384c-0.371,0.607-0.738,1.224-1.097,1.854c-0.032,0.057-0.064,0.115-0.096,0.172
	c-0.338,0.6-0.67,1.212-0.995,1.833c-0.063,0.121-0.128,0.241-0.191,0.364c-0.334,0.646-0.661,1.305-0.98,1.973
	c-0.065,0.137-0.13,0.275-0.194,0.413c-0.327,0.696-0.648,1.399-0.957,2.116c-7.96,18.501-6.677,36.828,2.884,40.943
	c0.121,0.052,0.242,0.102,0.364,0.148l3.361,1.292c-0.122-0.047-0.244-0.097-0.364-0.148c-9.562-4.115-10.845-22.442-2.884-40.943
	C143.347,85.377,143.668,84.675,143.995,83.98z"/>
<g>
	<linearGradient id="SVGID_6_" gradientUnits="userSpaceOnUse" x1="163.9454" y1="89.1182" x2="196.9453" y2="48.6183">
		<stop  offset="0" style="stop-color:#F9C850"/>
		<stop  offset="1" style="stop-color:#BB4F25"/>
	</linearGradient>
	<path fill="url(#SVGID_6_)" d="M169.982,59.256c1.677-0.092,3.283,0.167,4.774,0.809c9.552,4.107,10.846,22.444,2.875,40.936
		c-6.72,15.607-17.879,26.348-26.941,26.845c-1.675,0.092-3.279-0.167-4.768-0.809c-9.562-4.115-10.845-22.442-2.884-40.943
		C149.758,70.489,160.917,59.753,169.982,59.256z"/>
</g>
<linearGradient id="SVGID_7_" gradientUnits="userSpaceOnUse" x1="112.0752" y1="4.5483" x2="103.8853" y2="90.4443">
	<stop  offset="0" style="stop-color:#F9C850"/>
	<stop  offset="1" style="stop-color:#BB4F25"/>
</linearGradient>
<path fill="url(#SVGID_7_)" d="M98.585,42.897c-0.001-0.266,0.003-0.529,0.004-0.793c0.003-0.415,0.008-0.828,0.017-1.239
	c0.006-0.275,0.015-0.55,0.023-0.823c0.013-0.398,0.028-0.793,0.047-1.186c0.013-0.274,0.027-0.548,0.043-0.82
	c0.022-0.394,0.049-0.784,0.077-1.174c0.02-0.264,0.039-0.528,0.061-0.791c0.033-0.401,0.072-0.799,0.111-1.196
	c0.024-0.244,0.047-0.488,0.073-0.73c0.049-0.438,0.103-0.873,0.158-1.306c0.024-0.193,0.047-0.389,0.073-0.582
	c0.084-0.622,0.176-1.237,0.275-1.845c0.014-0.081,0.029-0.16,0.043-0.241c0.088-0.526,0.18-1.048,0.279-1.564
	c0.04-0.208,0.084-0.412,0.125-0.619c0.078-0.385,0.156-0.768,0.24-1.147c0.051-0.231,0.105-0.458,0.158-0.687
	c0.081-0.349,0.164-0.696,0.25-1.039c0.059-0.232,0.119-0.463,0.18-0.692c0.089-0.333,0.179-0.665,0.272-0.992
	c0.064-0.227,0.129-0.454,0.196-0.678c0.097-0.325,0.196-0.645,0.297-0.963c0.069-0.217,0.138-0.434,0.209-0.647
	c0.108-0.328,0.222-0.65,0.335-0.971c0.069-0.193,0.136-0.389,0.206-0.58c0.135-0.363,0.273-0.719,0.414-1.073
	c0.056-0.14,0.108-0.283,0.165-0.421c0.199-0.487,0.403-0.965,0.614-1.433c0.045-0.099,0.092-0.193,0.137-0.292
	c0.169-0.366,0.339-0.729,0.515-1.082c0.081-0.163,0.165-0.32,0.248-0.481c0.144-0.28,0.289-0.559,0.438-0.832
	c0.095-0.172,0.191-0.34,0.288-0.509c0.143-0.25,0.286-0.499,0.434-0.742c0.101-0.169,0.205-0.335,0.309-0.5
	c0.146-0.233,0.296-0.463,0.446-0.688c0.106-0.16,0.214-0.319,0.323-0.475c0.154-0.221,0.312-0.437,0.469-0.65
	c0.109-0.146,0.217-0.294,0.327-0.437c0.169-0.218,0.342-0.428,0.515-0.637c0.102-0.125,0.205-0.253,0.31-0.375
	c0.206-0.238,0.415-0.466,0.626-0.69c0.076-0.081,0.149-0.167,0.226-0.246c0.287-0.297,0.579-0.581,0.875-0.852
	c0.08-0.073,0.163-0.139,0.244-0.211c0.218-0.193,0.438-0.384,0.66-0.563c0.117-0.094,0.236-0.18,0.354-0.27
	c0.191-0.145,0.383-0.289,0.577-0.424c0.13-0.09,0.262-0.174,0.393-0.259c0.188-0.122,0.376-0.241,0.566-0.352
	c0.137-0.08,0.273-0.156,0.412-0.232c0.189-0.103,0.381-0.201,0.573-0.295c0.14-0.067,0.279-0.134,0.42-0.196
	c0.169-0.075,0.34-0.142,0.511-0.208c0.208-0.082,0.417-0.159,0.627-0.229c0.168-0.055,0.336-0.105,0.504-0.153
	c0.209-0.06,0.42-0.113,0.631-0.161c0.206-0.046,0.413-0.091,0.621-0.126c0.098-0.016,0.195-0.034,0.293-0.048
	c0.334-0.048,0.67-0.086,1.01-0.105c0.371-0.02,0.741-0.015,1.109,0c0.067,0.003,0.135,0,0.202,0.003
	c0.383,0.022,0.765,0.067,1.144,0.126c0.197,0.031,0.392,0.078,0.587,0.119c0.218,0.045,0.436,0.086,0.652,0.144
	c0.194,0.051,0.388,0.119,0.582,0.18c0.255,0.081,0.51,0.154,0.763,0.252c-1.12-0.431-2.24-0.861-3.36-1.292
	c-0.079-0.03-0.158-0.06-0.238-0.089c-0.174-0.063-0.35-0.107-0.524-0.163c-0.193-0.061-0.386-0.127-0.58-0.179
	c-0.22-0.059-0.441-0.1-0.663-0.146c-0.193-0.04-0.385-0.086-0.579-0.117c-0.031-0.005-0.063-0.014-0.095-0.019
	c-0.349-0.052-0.698-0.086-1.049-0.107c-0.064-0.004-0.129-0.001-0.193-0.004c-0.262-0.011-0.523-0.021-0.786-0.014
	c-0.11,0.003-0.221,0.007-0.331,0.014c-0.341,0.019-0.678,0.057-1.014,0.105c-0.095,0.014-0.189,0.031-0.284,0.046
	c-0.119,0.02-0.238,0.035-0.356,0.059c-0.092,0.019-0.182,0.049-0.274,0.07c-0.209,0.047-0.417,0.101-0.625,0.159
	c-0.17,0.048-0.34,0.099-0.509,0.155c-0.205,0.068-0.408,0.144-0.61,0.223c-0.103,0.041-0.21,0.07-0.313,0.114
	c-0.076,0.032-0.149,0.072-0.226,0.105c-0.131,0.058-0.261,0.12-0.39,0.183c-0.203,0.098-0.405,0.201-0.605,0.311
	c-0.129,0.07-0.258,0.142-0.386,0.217c-0.199,0.117-0.397,0.242-0.595,0.37c-0.122,0.08-0.245,0.158-0.366,0.242
	c-0.205,0.142-0.408,0.294-0.609,0.448c-0.108,0.082-0.218,0.161-0.325,0.247c-0.236,0.19-0.47,0.392-0.701,0.597
	c-0.068,0.061-0.138,0.116-0.206,0.179c-0.298,0.273-0.593,0.56-0.882,0.859c-0.066,0.068-0.13,0.143-0.195,0.213
	c-0.221,0.234-0.439,0.473-0.655,0.722c-0.102,0.118-0.2,0.243-0.301,0.365c-0.176,0.212-0.351,0.425-0.522,0.647
	c-0.108,0.141-0.216,0.287-0.323,0.432c-0.158,0.214-0.316,0.431-0.472,0.653c-0.108,0.157-0.217,0.316-0.324,0.476
	c-0.149,0.225-0.298,0.453-0.444,0.685c-0.104,0.166-0.208,0.332-0.311,0.502c-0.147,0.242-0.289,0.489-0.432,0.739
	c-0.098,0.171-0.195,0.34-0.29,0.515c-0.147,0.269-0.291,0.545-0.434,0.822c-0.084,0.163-0.17,0.323-0.253,0.489
	c-0.171,0.345-0.337,0.699-0.502,1.056c-0.049,0.107-0.101,0.21-0.149,0.318c-0.21,0.466-0.413,0.942-0.611,1.427
	c-0.06,0.147-0.116,0.298-0.175,0.446c-0.137,0.345-0.272,0.692-0.403,1.046c-0.073,0.198-0.143,0.402-0.214,0.603
	c-0.111,0.313-0.221,0.627-0.327,0.947c-0.073,0.22-0.144,0.444-0.215,0.667c-0.099,0.311-0.196,0.624-0.29,0.941
	c-0.069,0.232-0.137,0.465-0.203,0.699c-0.091,0.32-0.179,0.642-0.265,0.967c-0.063,0.237-0.125,0.474-0.186,0.714
	c-0.085,0.336-0.165,0.676-0.245,1.018c-0.055,0.234-0.11,0.468-0.162,0.705c-0.082,0.37-0.158,0.745-0.234,1.121
	c-0.044,0.215-0.09,0.428-0.131,0.644c-0.096,0.497-0.185,1-0.27,1.506c-0.017,0.1-0.036,0.198-0.053,0.299
	c-0.099,0.605-0.189,1.217-0.274,1.835c-0.027,0.204-0.051,0.411-0.077,0.616c-0.054,0.421-0.106,0.844-0.153,1.271
	c-0.027,0.249-0.051,0.5-0.075,0.751c-0.039,0.391-0.077,0.782-0.11,1.178c-0.022,0.266-0.041,0.533-0.061,0.801
	c-0.028,0.386-0.055,0.774-0.077,1.165c-0.016,0.274-0.03,0.549-0.043,0.824c-0.019,0.393-0.034,0.786-0.047,1.182
	c-0.009,0.276-0.018,0.552-0.023,0.828c-0.01,0.41-0.014,0.822-0.016,1.234c-0.002,0.266-0.006,0.529-0.005,0.796
	c0.002,0.454,0.01,0.91,0.019,1.368c0.005,0.228,0.006,0.455,0.013,0.684c0.019,0.688,0.045,1.377,0.082,2.071
	c1.065,20.145,9.212,36.618,19.171,40.446l3.361,1.293c-9.959-3.829-18.106-20.303-19.172-40.447
	c-0.037-0.694-0.063-1.385-0.082-2.071c-0.007-0.229-0.008-0.456-0.013-0.684C98.595,43.807,98.587,43.351,98.585,42.897z"/>
<g>
	<linearGradient id="SVGID_8_" gradientUnits="userSpaceOnUse" x1="110.7637" y1="64.3719" x2="142.7638" y2="4.3718">
		<stop  offset="0" style="stop-color:#F9C850"/>
		<stop  offset="1" style="stop-color:#BB4F25"/>
	</linearGradient>
	<path fill="url(#SVGID_8_)" d="M118.413,3.342c12.133-0.665,22.966,17.814,24.206,41.271c1.24,23.456-7.583,43.013-19.715,43.678
		c-12.123,0.664-22.966-17.814-24.206-41.271C97.458,23.563,106.29,4.006,118.413,3.342z"/>
</g>
<linearGradient id="SVGID_9_" gradientUnits="userSpaceOnUse" x1="88.071" y1="100.8817" x2="17.7694" y2="202.5935">
	<stop  offset="0" style="stop-color:#F9C850"/>
	<stop  offset="1" style="stop-color:#BB4F25"/>
</linearGradient>
<path fill="url(#SVGID_9_)" d="M88.478,102.505c0.609-0.076,1.213-0.138,1.824-0.171c0.334-0.019,0.665-0.021,0.996-0.027
	c0.705-0.014,1.404-0.006,2.097,0.033c0.092,0.006,0.183,0.016,0.273,0.022c0.635,0.042,1.264,0.108,1.887,0.193
	c0.145,0.02,0.29,0.035,0.434,0.058c0.198,0.03,0.396,0.067,0.593,0.102c0.262,0.046,0.523,0.093,0.783,0.146
	c0.2,0.041,0.399,0.088,0.598,0.134c0.254,0.059,0.507,0.117,0.757,0.183c0.198,0.052,0.396,0.107,0.592,0.164
	c0.248,0.07,0.495,0.143,0.741,0.22c0.193,0.062,0.386,0.126,0.578,0.191c0.333,0.113,0.665,0.227,0.992,0.353
	c-1.12-0.431-2.241-0.861-3.361-1.292c-0.193-0.074-0.388-0.146-0.583-0.217c-0.133-0.048-0.269-0.088-0.402-0.133
	c-0.196-0.067-0.394-0.134-0.592-0.196c-0.238-0.075-0.479-0.146-0.72-0.214c-0.205-0.059-0.409-0.117-0.616-0.171
	c-0.239-0.063-0.48-0.118-0.722-0.174c-0.212-0.049-0.423-0.099-0.637-0.143c-0.242-0.05-0.486-0.094-0.73-0.137
	c-0.215-0.038-0.43-0.078-0.646-0.111c-0.057-0.009-0.113-0.021-0.17-0.029c-0.075-0.011-0.152-0.013-0.228-0.023
	c-0.637-0.088-1.278-0.155-1.926-0.198c-0.083-0.005-0.165-0.015-0.248-0.019c-0.69-0.039-1.387-0.047-2.088-0.034
	c-0.076,0.001-0.149-0.006-0.226-0.004c-0.262,0.008-0.523,0.018-0.786,0.032c-0.607,0.033-1.209,0.094-1.814,0.169
	c-0.109,0.014-0.221,0.026-0.331,0.041c-0.585,0.08-1.181,0.181-1.791,0.3c-0.047,0.01-0.091,0.014-0.138,0.023
	c-0.26,0.052-0.523,0.107-0.791,0.167c-0.213,0.047-0.426,0.104-0.639,0.161c-0.633,0.162-1.251,0.344-1.856,0.545
	c-0.36,0.12-0.706,0.261-1.057,0.395c-0.24,0.092-0.487,0.173-0.724,0.271c-0.005,0.002-0.01,0.003-0.014,0.005
	c-0.518,0.215-1.021,0.45-1.518,0.695c-0.146,0.071-0.288,0.147-0.432,0.222c-0.367,0.189-0.729,0.387-1.085,0.594
	c-0.143,0.082-0.288,0.164-0.43,0.25c-0.459,0.277-0.912,0.565-1.354,0.87c-0.014,0.009-0.028,0.018-0.042,0.027
	c-0.453,0.315-0.895,0.648-1.33,0.99c-0.132,0.104-0.261,0.211-0.392,0.317c-0.316,0.259-0.629,0.525-0.937,0.799
	c-0.126,0.111-0.253,0.223-0.377,0.337c-0.412,0.38-0.819,0.769-1.215,1.175c-2.968,3.064-5.225,6.811-6.54,11.026
	c-2.923,8.674-2.454,17.046-24.683,27.625c-22.23,10.57-19.904,29.666-19.781,30.672c0.635,12.006,8.335,21.943,18.852,25.986
	c1.12,0.431,2.24,0.861,3.36,1.292c-10.516-4.043-18.217-13.98-18.852-25.986c-0.122-1.005-2.448-20.102,19.782-30.672
	c22.229-10.579,21.76-18.951,24.682-27.625c1.315-4.216,3.572-7.962,6.54-11.025c0.397-0.408,0.806-0.799,1.22-1.18
	c0.12-0.11,0.242-0.217,0.363-0.324c0.314-0.28,0.635-0.554,0.959-0.818c0.123-0.101,0.245-0.202,0.37-0.3
	c0.878-0.691,1.792-1.325,2.744-1.9c0.133-0.08,0.269-0.157,0.402-0.235c0.367-0.212,0.739-0.416,1.118-0.611
	c0.135-0.069,0.27-0.141,0.406-0.209c0.505-0.249,1.018-0.487,1.544-0.706c0.121-0.05,0.249-0.09,0.371-0.139
	c0.463-0.184,0.927-0.364,1.406-0.524c0.605-0.201,1.224-0.383,1.856-0.545c0.213-0.058,0.425-0.114,0.639-0.161
	c0.318-0.07,0.625-0.131,0.932-0.19c0.612-0.12,1.207-0.221,1.794-0.301C88.269,102.53,88.374,102.518,88.478,102.505z"/>
<g>
	<linearGradient id="SVGID_10_" gradientUnits="userSpaceOnUse" x1="102.9109" y1="126.4907" x2="72.4111" y2="292.9899">
		<stop  offset="0" style="stop-color:#F9C850"/>
		<stop  offset="1" style="stop-color:#BB4F25"/>
	</linearGradient>
	<path fill="url(#SVGID_10_)" d="M90.303,102.334c11.487-0.629,21.688,5.902,26.316,15.712c0.365,0.782,0.674,1.504,0.946,2.245
		c2.67,6.098,10.774,22.628,20.544,23.714c11.696,1.287,29.266,13.316,28.358,32.89c-0.043,0.705-0.065,1.13-0.106,1.556
		c-1.384,14.311-13.031,25.86-27.79,26.669c-6.296,0.345-12.228-1.321-17.195-4.428c-0.01,0.001-13.891-9.205-26.539-8.512
		c-13.021,0.869-22.249,8.168-28.671,11.214c-4.134,2.605-8.932,4.22-14.124,4.505c-16.266,0.892-30.145-11.593-31.007-27.889
		c-0.122-1.005-2.448-20.102,19.782-30.672c22.229-10.579,21.76-18.951,24.682-27.625c1.315-4.216,3.572-7.962,6.54-11.025
		c3.531-3.626,7.703-6.197,12.761-7.492c0.213-0.058,0.425-0.114,0.639-0.161C87.163,102.652,88.707,102.422,90.303,102.334z"/>
</g>
</svg>
