<?xml version="1.0" encoding="utf-8"?>
<!-- Generator: Adobe Illustrator 18.1.1, SVG Export Plug-In . SVG Version: 6.00 Build 0)  -->
<svg version="1.1" id="Layer_1" xmlns="http://www.w3.org/2000/svg" xmlns:xlink="http://www.w3.org/1999/xlink" x="0px" y="0px"
	 viewBox="0 0 16.3 16.3" enable-background="new 0 0 16.3 16.3" xml:space="preserve">
<g opacity="0.5">
	<g>
		<path fill="#E9E9E8" d="M175.9-65.6H-46.4c-2.2,0-4-1.8-4-4v-6c0-2.2,1.8-4,4-4h222.3c2.2,0,4,1.8,4,4v6
			C179.9-67.4,178.1-65.6,175.9-65.6z"/>
	</g>
	<g>
		<path fill="#F4F2F1" d="M175.9-65.1H-46.4c-2.2,0-4-1.8-4-4v-6c0-2.2,1.8-4,4-4h222.3c2.2,0,4,1.8,4,4v6
			C179.9-66.9,178.1-65.1,175.9-65.1z"/>
	</g>
</g>
<path fill="#8A8E90" d="M173.3-72.3H-43.8c-0.6,0-1.2-0.5-1.2-1.2v-0.3c0-0.6,0.5-1.2,1.2-1.2h217.1c0.6,0,1.2,0.5,1.2,1.2v0.3
	C174.5-72.8,173.9-72.3,173.3-72.3z"/>
<g>
	<rect x="-43.7" y="-74" fill="#606465" width="0.8" height="1.9"/>
</g>
<g>
	<rect x="171.8" y="-74" fill="#606465" width="0.8" height="1.9"/>
</g>
<g>
	<path fill="#F4D2CE" d="M8.1,0C3.7,0,0,3.8,0,8.2s3.8,8.1,8.2,8.1c4.4,0,8.1-3.8,8.1-8.2C16.3,3.7,12.5,0,8.1,0z M8.2,15.5
		c-4,0-7.4-3.3-7.4-7.3c0-4,3.3-7.4,7.3-7.4s7.4,3.3,7.4,7.3S12.2,15.5,8.2,15.5z"/>
	<path fill="#F4D2CE" d="M9.7,7.6l1.9,0c0.2,0,0.4-0.2,0.4-0.4s-0.2-0.4-0.4-0.4l-1.9,0C9.5,6.8,9.3,7,9.3,7.2
		C9.3,7.4,9.5,7.6,9.7,7.6z"/>
	<path fill="#F4D2CE" d="M4.7,7.6l1.9,0C6.8,7.6,7,7.4,7,7.2C7,7,6.8,6.8,6.6,6.8l-1.9,0C4.4,6.8,4.3,7,4.3,7.2
		C4.3,7.4,4.4,7.6,4.7,7.6z"/>
	<path fill="#F4D2CE" d="M11.9,10.5c-0.2-0.1-0.4,0-0.5,0.1c-0.6,1.1-1.8,1.8-3.2,1.8S5.6,11.8,5,10.7c-0.1-0.2-0.3-0.2-0.5-0.1
		c-0.2,0.1-0.2,0.3-0.1,0.5c0.8,1.3,2.3,2.1,3.9,2.1c1.6,0,3.1-0.8,3.9-2.2C12.2,10.8,12.1,10.6,11.9,10.5z"/>
</g>
</svg>
